<svg width="402" height="40" viewBox="0 0 402 40" fill="none" xmlns="http://www.w3.org/2000/svg">
<path d="M235.49 21.1934C235.49 26.8416 237.037 29.333 240.706 29.333C244.372 29.333 246.153 27.0715 246.153 20.6162V0.783203H259.776V21.75C259.776 33.6344 253.171 40 240.82 40C228.698 39.9999 221.862 33.4574 221.862 21.8643V0.783203H235.49V21.1934ZM288.525 0C294.787 5.03503e-05 299.343 1.40894 303.896 3.70898L299.822 13.457C297.347 11.481 294.259 9.70508 290.709 9.70508C285.089 9.70521 281.926 14.3328 281.926 19.8457C281.926 25.2821 285.519 29.744 290.917 29.7441C294.924 29.7441 297.385 28.1005 299.822 26.2598L303.949 36.2246C300.354 38.4352 295.633 40 288.914 40C276.715 40 268.168 32.1405 268.168 19.7305C268.168 7.95884 276.962 0 288.525 0ZM17.2334 0C22.5203 0 28.1806 1.59549 32.8428 3.60938L29.2754 12.3721C26.0934 10.4242 22.396 8.7959 18.4268 8.7959C16.8348 8.79591 13.8647 8.98218 13.8643 11.3301C13.8643 13.1113 15.9771 13.559 20.3877 14.5137C26.2433 15.7846 33.747 18.1996 33.7471 27.0508C33.7471 36.8908 24.7527 39.997 16.0811 39.9971C10.3502 39.9971 4.6641 38.0932 0 35.0508L4.31348 26.5605C6.90392 28.7868 11.0607 30.7012 15.4336 30.7012C17.4012 30.7011 19.4432 30.0887 19.4434 28.0293C19.4434 25.9638 16.7843 25.6554 12.6299 24.6289C6.63521 23.1437 1.19546 20.3663 1.19531 13.1611C1.19531 4.36984 8.2374 2.03815e-05 17.2334 0ZM372.311 0C377.595 0 383.255 1.59549 387.917 3.60938L384.347 12.3721C381.171 10.4242 377.467 8.7959 373.504 8.7959C371.912 8.79591 368.936 8.98218 368.936 11.3301C368.936 13.1113 371.051 13.5591 375.461 14.5137C381.319 15.7846 388.823 18.1994 388.823 27.0508C388.823 36.8909 379.829 39.9971 371.157 39.9971C365.424 39.997 359.739 38.0932 355.071 35.0508L359.391 26.5605C361.978 28.7868 366.132 30.7011 370.51 30.7012C372.478 30.7012 374.516 30.0888 374.517 28.0293C374.517 25.9639 371.859 25.6554 367.702 24.6289C361.707 23.1437 356.27 20.3663 356.27 13.1611C356.27 4.36983 363.314 9.88124e-06 372.311 0ZM198.366 0.783203C206.957 0.783203 211.838 4.46465 211.838 11.0068C211.838 15.7106 209.395 18.5211 204.418 19.5928C209.499 20.0039 212.652 23.3806 212.652 28.376C212.652 35.6349 207.617 39.2187 197.501 39.2188H176.557V0.783203H198.366ZM75.8955 10.5342H64.3721V39.2168H50.6074V10.5342H39.0869V0.78125H75.8955V10.5342ZM121.663 39.2168H107.943L105.643 32.1738H92.7158L90.2705 39.2168H76.5479L90.4688 0.78125H107.896L121.663 39.2168ZM150.237 0.783203C158.995 0.783203 165.17 4.90102 165.17 13.9727C165.17 18.4061 162.626 23.1382 157.949 24.8535L167.385 39.2168H153.079L146.185 27.8096H142.838V39.2168H129.575V0.783203H150.237ZM326.274 14.8604L334.349 0.78125H349.284L336.732 19.7305L350.895 39.2168H334.895L326.274 25.208V39.2168H312.907V0.78125H326.274V14.8604ZM189.678 23.6865V30.8828H194.537C197.229 30.8828 198.869 29.5678 198.869 27.3037V27.1963C198.869 24.8383 197.185 23.6865 194.583 23.6865H189.678ZM95.6943 22.7178H102.565L99.084 9.54883L95.6943 22.7178ZM142.841 9.98242V18.0127H147.551C150.161 18.0127 151.748 16.5477 151.748 14.0264V13.9082C151.748 11.2718 150.113 9.98255 147.597 9.98242H142.841ZM189.678 9.11523V15.9658H194.431C197.066 15.9657 198.666 14.7152 198.666 12.5654V12.4639C198.666 10.2154 197.021 9.11523 194.477 9.11523H189.678ZM397.5 1C399.812 1 401.5 2.81675 401.5 4.98633C401.5 7.31919 399.814 9 397.5 9C395.188 9 393.5 7.29074 393.5 4.98633C393.5 2.81675 395.188 1 397.5 1ZM397.5 1.81348C395.949 1.81348 394.371 2.97993 394.371 4.98633C394.371 7.07452 395.949 8.18652 397.5 8.18652C399.051 8.18652 400.629 7.07452 400.629 4.98633C400.629 2.97993 399.051 1.81348 397.5 1.81348ZM397.664 2.87207C398.562 2.87223 399.188 3.41451 399.188 4.14648C399.188 4.77047 398.834 5.3126 398.018 5.44727L398.916 6.45117C398.998 6.53255 399.053 6.64026 399.053 6.72168C399.053 6.96635 398.889 7.12988 398.646 7.12988C398.482 7.12986 398.374 7.04838 398.292 6.94043L397.095 5.5293H396.958V6.69531C396.958 6.91153 396.767 7.10156 396.521 7.10156C396.303 7.10133 396.112 6.9114 396.112 6.69531V3.30664C396.112 3.09056 396.303 2.87234 396.521 2.87207H397.664ZM396.958 4.76855H397.556C398.044 4.7684 398.316 4.52344 398.316 4.19922C398.316 3.8467 398.07 3.65723 397.637 3.65723H396.958V4.76855Z" fill="#006242"/>
</svg>
